# xmcd
#
# Track frame offsets:
#	150
#	16055
#	27390
#	36957
#	49055
#	64660
#	76722
#	88760
#	101327
#	113905
#	126475
#	138545
#	151697
#	164962
#	174447
#	185822
#	199785
#	209065
#	221240
#	233675
#	245815
#	258292
#	269610
#	278477
#	289125
#	299187
#	308822
#	320617
#	330637
#
# Disc length: 4566 seconds
#
# Revision: 0
# Processed by: cddbd v1.4PL0 Copyright (c) Steve Scherf et al.
# Submitted via: dBpowerAMP V4.0
#
DISCID=c411d41d
DTITLE=Ernest Tubb - Waltz Across Texas - CD 6
DYEAR=1998
DGENRE=Country
TTITLE0=With Tears In My Eyes
TTITLE1=Blue Christmas Tree
TTITLE2=Who's Gonna Be Your Santa Claus This Year
TTITLE3=What Am I Bid (The Texas Troubadours)
TTITLE4=It's For God, And Country, And You, Mom
TTITLE5=You'll Still Be In My Heart
TTITLE6=Forgive Me
TTITLE7=Too Many Rivers
TTITLE8=My Shoes Keep Walking Back To You
TTITLE9=Till My Getup Has Got Up And Gone
TTITLE10=Release Me
TTITLE11=Mom And Dad's Waltz
TTITLE12=Born To Lose (Outtake)
TTITLE13=Hello Trouble (Come On In)
TTITLE14=Just One More
TTITLE15=Born To Lose
TTITLE16=I'll Keep On Loving You
TTITLE17=Under Your Spell Again
TTITLE18=They'll Never Take Her Love From Me (The Texas Troubadours)
TTITLE19=Remember Me (When The Candlelights Are Gleaming)
TTITLE20=Tennessee Waltz
TTITLE21=Fireball Mail
TTITLE22=I Hung My Head And Cried
TTITLE23=Before I Met You
TTITLE24=Memphis
TTITLE25=I'm Gonna Tie One On Tonight
TTITLE26=May The Bird Of Paradise Fly Up Your Nose
TTITLE27=Waitin' In Your Welfare Line
TTITLE28=No Matter What Happens My Darling
EXTD=
EXTT0=
EXTT1=
EXTT2=
EXTT3=
EXTT4=
EXTT5=
EXTT6=
EXTT7=
EXTT8=
EXTT9=
EXTT10=
EXTT11=
EXTT12=
EXTT13=
EXTT14=
EXTT15=
EXTT16=
EXTT17=
EXTT18=
EXTT19=
EXTT20=
EXTT21=
EXTT22=
EXTT23=
EXTT24=
EXTT25=
EXTT26=
EXTT27=
EXTT28=
PLAYORDER=
